<svg xmlns="http://www.w3.org/2000/svg" width="80" height="120" viewBox="0 0 80 120"><rect width="100%" height="100%" fill="#DDDDDD"/><path fill="#999999" d="M15.48 62.625h1.36q.38 0 .63-.09.26-.09.41-.24t.22-.35.07-.43-.08-.42q-.07-.19-.23-.32t-.42-.2q-.25-.07-.6-.07h-1.36zm1.15-5.14h-1.15v2.09h1.07q.69 0 1.04-.25.36-.25.36-.8 0-.56-.32-.8t-1-.24m-2.49-1.04h2.49q.71 0 1.21.14.51.13.83.38t.47.6q.15.36.15.81 0 .25-.07.48-.08.24-.24.44-.15.2-.4.37-.24.16-.57.28 1.49.33 1.49 1.6 0 .46-.18.85-.17.39-.51.68-.33.28-.82.44t-1.12.16h-2.73zm8.66 2.02q.57 0 1.03.18.47.19.8.53.34.34.52.83t.18 1.09q0 .61-.18 1.1-.18.5-.52.84-.33.35-.8.53-.46.18-1.03.18-.58 0-1.05-.18t-.8-.53q-.33-.34-.52-.84-.18-.49-.18-1.1 0-.6.18-1.09.19-.49.52-.83t.8-.53q.47-.18 1.05-.18m0 4.33q.64 0 .94-.42.31-.44.31-1.26 0-.84-.31-1.27-.3-.43-.94-.43-.65 0-.97.43-.31.44-.31 1.27 0 .82.31 1.25.32.43.97.43m5.74-4.33q.57 0 1.04.18.47.19.8.53t.51.83.18 1.09q0 .61-.18 1.1-.18.5-.51.84-.33.35-.8.53t-1.04.18-1.04-.18-.81-.53q-.33-.34-.51-.84-.18-.49-.18-1.1 0-.6.18-1.09t.51-.83q.34-.34.81-.53.47-.18 1.04-.18m0 4.33q.64 0 .95-.42.31-.44.31-1.26 0-.84-.31-1.27t-.95-.43q-.65 0-.96.43-.31.44-.31 1.27 0 .82.31 1.25t.96.43m3.48-6.55h1.23v4.25h.23q.13 0 .2-.03t.15-.13l1.27-1.58q.08-.1.18-.16.1-.05.25-.05h1.13l-1.59 1.9q-.17.23-.37.35.1.07.18.17.09.11.16.22l1.71 2.49h-1.11q-.15 0-.25-.05-.11-.05-.18-.17l-1.31-1.95q-.07-.11-.14-.14-.08-.04-.23-.04h-.28v2.35h-1.23zm12.93 5.72q.11 0 .2.09l.53.58q-.44.54-1.09.83-.64.29-1.54.29-.8 0-1.45-.28-.64-.27-1.09-.76-.46-.49-.7-1.17t-.24-1.49.26-1.49.73-1.17 1.13-.76q.65-.27 1.45-.27.79 0 1.4.26t1.04.68l-.45.62q-.04.06-.1.11t-.17.05q-.08 0-.16-.05-.08-.04-.17-.1-.1-.06-.22-.14-.13-.08-.29-.14-.17-.06-.39-.1-.21-.05-.5-.05-.48 0-.89.18-.4.17-.69.5-.29.32-.45.8-.16.47-.16 1.07 0 .62.17 1.09.18.47.47.8.3.32.7.5.4.17.86.17.27 0 .49-.03.23-.03.41-.1.19-.06.36-.16.17-.11.33-.25.05-.05.11-.08.05-.03.11-.03m3.73-3.5q.57 0 1.03.18.47.19.8.53.34.34.52.83t.18 1.09q0 .61-.18 1.1-.18.5-.52.84-.33.35-.8.53-.46.18-1.03.18-.58 0-1.05-.18t-.8-.53q-.33-.34-.52-.84-.18-.49-.18-1.1 0-.6.18-1.09.19-.49.52-.83t.8-.53q.47-.18 1.05-.18m0 4.33q.64 0 .94-.42.31-.44.31-1.26 0-.84-.31-1.27-.3-.43-.94-.43-.65 0-.97.43-.31.44-.31 1.27 0 .82.31 1.25.32.43.97.43m7.12-4.25h.98l-2.04 5.13h-1.12l-2.03-5.13h1.02q.14 0 .23.06.09.07.12.17l.99 2.74q.08.24.14.47t.11.46q.05-.23.11-.46t.14-.47l1.01-2.74q.04-.1.13-.17.09-.06.21-.06m2.61 1.97h2.33q0-.24-.07-.45t-.2-.37q-.14-.16-.35-.25-.2-.1-.48-.1-.53 0-.84.31t-.39.86m3.15.75h-3.18q.03.39.14.68t.29.48.43.28.55.09.51-.07q.22-.07.38-.15.17-.09.29-.16t.24-.07q.15 0 .23.11l.35.45q-.2.24-.46.41-.25.16-.53.26-.28.09-.57.14-.28.03-.55.03-.54 0-1-.17-.46-.18-.8-.53-.34-.34-.53-.86-.2-.51-.2-1.19 0-.52.17-.98.17-.47.49-.81t.77-.54q.46-.2 1.04-.2.48 0 .89.16.41.15.71.45.29.3.46.73t.17.98q0 .29-.06.38-.06.1-.23.1m2.3-2.41.08.58q.24-.46.57-.72.33-.27.78-.27.35 0 .57.16l-.08.92q-.03.1-.08.13-.04.04-.12.04t-.23-.02q-.14-.03-.28-.03-.21 0-.37.06t-.29.17q-.12.11-.22.28-.1.15-.18.36v3.16h-1.24v-5.13h.73q.19 0 .26.07.08.06.1.24"/></svg>
