<svg xmlns="http://www.w3.org/2000/svg" width="240" height="360" viewBox="0 0 240 360"><rect width="100%" height="100%" fill="#DDDDDD"/><path fill="#999999" d="M51.36 187.35h3.8q1.05 0 1.77-.25.71-.25 1.14-.67t.62-.98q.18-.56.18-1.19 0-.66-.21-1.19-.21-.52-.65-.89-.45-.37-1.16-.57t-1.7-.2h-3.79zm3.2-14.39h-3.2v5.85h2.99q1.93 0 2.92-.7t.99-2.23q0-1.58-.9-2.25-.89-.67-2.8-.67m-6.97-2.91h6.97q1.99 0 3.4.37 1.42.38 2.32 1.08t1.32 1.7q.42.99.42 2.24 0 .71-.21 1.36t-.65 1.22-1.12 1.03-1.61.78q4.17.94 4.17 4.51 0 1.29-.49 2.38t-1.43 1.88-2.31 1.24-3.14.45h-7.64zm24.25 5.65q1.59 0 2.9.52t2.24 1.47 1.44 2.32q.5 1.38.5 3.07 0 1.71-.5 3.08-.51 1.37-1.44 2.34-.93.96-2.24 1.48t-2.9.52q-1.61 0-2.93-.52-1.31-.52-2.25-1.48-.93-.97-1.44-2.34t-.51-3.08q0-1.69.51-3.07.51-1.37 1.44-2.32.94-.95 2.25-1.47 1.32-.52 2.93-.52m0 12.14q1.79 0 2.65-1.2.86-1.21.86-3.53 0-2.33-.86-3.54-.86-1.22-2.65-1.22-1.82 0-2.7 1.22-.87 1.23-.87 3.54t.87 3.52q.88 1.21 2.7 1.21m16.08-12.14q1.6 0 2.91.52t2.24 1.47 1.43 2.32q.51 1.38.51 3.07 0 1.71-.51 3.08-.5 1.37-1.43 2.34-.93.96-2.24 1.48t-2.91.52q-1.61 0-2.92-.52-1.32-.52-2.25-1.48-.93-.97-1.44-2.34t-.51-3.08q0-1.69.51-3.07.51-1.37 1.44-2.32t2.25-1.47q1.31-.52 2.92-.52m0 12.14q1.8 0 2.66-1.2.86-1.21.86-3.53 0-2.33-.86-3.54-.86-1.22-2.66-1.22-1.82 0-2.69 1.22-.88 1.23-.88 3.54t.88 3.52q.87 1.21 2.69 1.21m9.73-18.35h3.46v11.91h.65q.35 0 .55-.09t.41-.37l3.57-4.41q.23-.3.5-.45t.71-.15h3.16l-4.47 5.33q-.47.63-1.03.97.29.21.52.49t.44.6l4.79 6.97h-3.12q-.41 0-.7-.13-.29-.14-.49-.49l-3.67-5.44q-.19-.32-.4-.42t-.63-.1h-.79v6.58h-3.46zm36.22 16.03q.31 0 .55.23l1.48 1.61q-1.23 1.53-3.03 2.34t-4.32.81q-2.25 0-4.05-.77t-3.07-2.14q-1.28-1.37-1.96-3.27-.68-1.91-.68-4.16 0-2.28.73-4.18t2.05-3.27q1.33-1.37 3.16-2.14 1.83-.76 4.06-.76 2.21 0 3.93.73 1.71.73 2.92 1.9l-1.26 1.75q-.12.17-.29.3-.18.12-.48.12-.21 0-.44-.12-.22-.11-.49-.29-.26-.17-.61-.38t-.82-.39q-.46-.17-1.07-.29t-1.4-.12q-1.36 0-2.49.48t-1.94 1.4-1.26 2.24-.45 3.02q0 1.71.49 3.04.48 1.33 1.31 2.24.82.91 1.94 1.39t2.41.48q.77 0 1.39-.08.63-.09 1.15-.27.53-.18 1-.47.46-.28.93-.7.14-.13.29-.21.15-.07.32-.07m10.43-9.82q1.6 0 2.91.52t2.24 1.47 1.43 2.32q.51 1.38.51 3.07 0 1.71-.51 3.08-.5 1.37-1.43 2.34-.93.96-2.24 1.48t-2.91.52q-1.61 0-2.92-.52-1.32-.52-2.25-1.48-.93-.97-1.44-2.34t-.51-3.08q0-1.69.51-3.07.51-1.37 1.44-2.32t2.25-1.47q1.31-.52 2.92-.52m0 12.14q1.79 0 2.66-1.2.86-1.21.86-3.53 0-2.33-.86-3.54-.87-1.22-2.66-1.22-1.82 0-2.69 1.22-.88 1.23-.88 3.54t.88 3.52q.87 1.21 2.69 1.21m19.95-11.91h2.73l-5.7 14.36h-3.13l-5.7-14.36h2.86q.39 0 .65.18t.34.46l2.77 7.67q.23.67.39 1.32.17.64.3 1.29.14-.65.31-1.29.16-.65.4-1.32l2.83-7.67q.1-.28.35-.46t.6-.18m7.3 5.53h6.52q0-.68-.19-1.27-.19-.6-.57-1.04-.37-.45-.95-.71-.59-.26-1.36-.26-1.49 0-2.35.85-.87.86-1.1 2.43m8.82 2.08h-8.89q.08 1.11.39 1.91.31.81.81 1.33.5.53 1.2.79.69.26 1.53.26t1.45-.2 1.06-.43q.46-.24.8-.44.34-.19.67-.19.43 0 .64.32l.99 1.26q-.57.67-1.28 1.12-.72.46-1.49.73-.78.28-1.59.39-.8.11-1.56.11-1.5 0-2.78-.5-1.29-.49-2.24-1.47-.96-.97-1.5-2.41-.55-1.43-.55-3.32 0-1.47.48-2.77.47-1.29 1.36-2.25t2.17-1.52 2.89-.56q1.36 0 2.51.44 1.15.43 1.97 1.26.83.84 1.3 2.05t.47 2.76q0 .79-.17 1.06t-.64.27m6.45-6.75.21 1.63q.67-1.29 1.6-2.02.92-.74 2.18-.74.99 0 1.6.43l-.23 2.59q-.07.26-.2.36-.13.11-.36.11-.21 0-.62-.07t-.81-.07q-.57 0-1.02.16-.45.17-.8.49-.36.31-.63.76-.28.45-.51 1.02v8.85h-3.46v-14.36h2.03q.53 0 .74.18.21.19.28.68"/></svg>
